<svg width="43" height="42" viewBox="0 0 43 42" fill="none" xmlns="http://www.w3.org/2000/svg">
<path d="M10.1062 32.6185C9.74787 32.5468 9.46116 32.4751 9.10279 32.3318C8.74441 32.1884 8.45771 32.1168 8.17101 31.9734C7.52593 31.6867 6.95252 31.3283 6.37912 30.8983C5.23231 30.1099 4.30053 29.0347 3.58377 27.7446C2.86702 26.5261 2.43697 25.0926 2.36529 23.7307C2.29362 23.014 2.36529 22.3689 2.43697 21.6521C2.50864 21.2938 2.58032 21.0071 2.65199 20.6487C2.72367 20.2903 2.86702 20.0036 2.93869 19.6452L3.01037 20.6487C3.01037 21.0071 3.08205 21.2938 3.15372 21.6521C3.2254 22.2972 3.36875 22.9423 3.5121 23.5157C3.7988 24.7342 4.22885 25.881 4.87393 26.9561C5.51901 28.0313 6.23577 29.0347 7.16755 29.9665C7.5976 30.3966 8.09933 30.8266 8.60106 31.2567C8.81608 31.4717 9.10279 31.6867 9.38949 31.9017L10.1062 32.6185ZM9.89122 35.1988C9.67619 35.3422 9.38949 35.4138 9.10279 35.4855C8.81608 35.5572 8.60106 35.6289 8.31436 35.6289C7.81263 35.7005 7.23922 35.7722 6.66582 35.7005C5.59069 35.6289 4.44388 35.3422 3.5121 34.8404C2.50864 34.3387 1.64854 33.5503 1.07513 32.6185C0.78843 32.1884 0.501728 31.6867 0.286702 31.185C0.215027 30.97 0.143351 30.6833 0.0716754 30.3966C0.0716754 30.1815 0 29.9665 0 29.6798C0.215026 29.8948 0.358377 30.1099 0.501728 30.2532C0.716755 30.4682 0.860106 30.6833 1.00346 30.8266C1.36183 31.185 1.64854 31.5434 2.00691 31.8301C2.72367 32.4751 3.44042 33.0486 4.30053 33.4786C5.08896 33.9087 6.02074 34.267 6.88085 34.5537C7.3109 34.6971 7.81263 34.7688 8.31436 34.9121C8.52938 34.9838 8.81608 34.9838 9.03111 35.0555C9.38949 35.1271 9.60452 35.1271 9.89122 35.1988ZM26.0899 0.364529C26.4483 0.436205 26.735 0.579556 27.0933 0.722907C27.4517 0.866258 27.7384 1.00961 28.0251 1.15296C28.6702 1.51134 29.2436 1.86971 29.817 2.29977C30.9638 3.15987 31.8956 4.30668 32.5407 5.59684C33.1857 6.887 33.5441 8.32051 33.5441 9.68234C33.5441 10.3991 33.4725 11.0442 33.3291 11.7609C33.2574 12.1193 33.1857 12.406 33.0424 12.7644C32.899 13.1228 32.8274 13.4095 32.684 13.6962L32.6123 12.6927C32.6123 12.3343 32.6123 12.0476 32.5407 11.6893L32.3256 9.75402C32.1106 8.53553 31.6806 7.31705 31.1072 6.17024C30.5338 5.02344 29.817 4.01998 28.9569 3.0882C28.5268 2.58647 28.0251 2.15642 27.5951 1.65469C27.38 1.43966 27.0933 1.22464 26.8066 1.00961L26.0899 0.364529ZM32.3256 0.0778275C32.6123 0.149503 32.8274 0.221178 33.0424 0.364529C33.2574 0.436205 33.5441 0.579556 33.7592 0.722907C34.1892 1.00961 34.6193 1.29631 35.0493 1.65469C35.8377 2.37144 36.4828 3.23155 36.8412 4.23501C37.2713 5.23846 37.4146 6.3136 37.2713 7.38873C37.1996 7.89046 37.0562 8.39218 36.9129 8.89391C36.8412 9.10894 36.6978 9.39564 36.6262 9.61067C36.4828 9.82569 36.4111 10.0407 36.1961 10.2557V9.53899V8.82224C36.1961 8.32051 36.1244 7.89045 36.1244 7.4604C35.9811 6.52862 35.8377 5.66852 35.4794 4.88008C35.121 4.01998 34.6909 3.30322 34.1892 2.51479C33.9025 2.15642 33.6158 1.72636 33.3291 1.36799C33.1857 1.15296 33.0424 1.00961 32.8274 0.794582C32.684 0.436205 32.469 0.221178 32.3256 0.0778275Z" fill="#42ADE2"/>
<path d="M5.73403 10.7574C4.30052 11.4025 3.7988 13.1227 4.44387 14.5562L13.475 33.4069L18.4923 31.0416L9.46116 12.1192C8.81608 10.6857 7.16754 10.0406 5.73403 10.7574ZM29.4586 25.7376L34.7626 23.2289L24.4413 1.72629C23.7246 0.292782 22.0044 -0.352297 20.4992 0.364457C19.0657 1.08121 18.4206 2.80142 19.1373 4.30661L29.4586 25.7376Z" fill="#FFDD67"/>
<path d="M20.5708 0.292811C20.4275 0.364486 20.2841 0.436162 20.1408 0.579513C21.5026 0.221135 22.9361 0.866215 23.5812 2.15637L33.9025 23.659L34.8343 23.229L24.513 1.72632C23.7962 0.221135 22.076 -0.423944 20.5708 0.292811Z" fill="#EBA352"/>
<path d="M18.4923 30.9699L24.0113 28.3179L13.475 6.38524C12.7582 4.88005 10.8947 4.1633 9.38948 4.88005C7.8843 5.59681 7.23922 7.46037 7.95597 8.96555L18.4923 30.9699Z" fill="#FFDD67"/>
<path d="M9.38951 4.95176C9.24616 5.02344 9.10281 5.09511 8.95946 5.23846C10.3213 4.88009 11.8982 5.52517 12.5432 6.887L19.0657 20.577L20.6426 21.5088L13.475 6.45695C12.7583 4.88009 10.9664 4.23501 9.38951 4.95176Z" fill="#EBA352"/>
<path d="M23.1511 26.5977L28.6702 23.9457L18.1339 2.01302C17.4171 0.507839 15.5535 -0.208916 14.0484 0.579514C12.5432 1.29627 11.8981 3.15983 12.6148 4.66502L23.1511 26.5977Z" fill="#FFDD67"/>
<path d="M14.0484 0.507754C13.905 0.579429 13.7617 0.72278 13.6183 0.794456C14.9801 0.436078 16.557 1.08116 17.2021 2.44299L24.5847 17.9249L26.1615 18.8567L18.1339 2.01294C17.4171 0.436079 15.5535 -0.209001 14.0484 0.507754ZM5.73401 10.7573C5.59066 10.829 5.44731 10.9007 5.30396 11.044C6.59411 10.6857 7.95595 11.3308 8.52935 12.6209L13.905 23.874L15.4819 24.8057L9.46113 12.1909C8.81605 10.6857 7.16752 10.0406 5.73401 10.7573Z" fill="#EBA352"/>
<path d="M42.1452 8.60713C40.21 7.10194 37.0563 8.75048 35.4794 13.9111C34.4043 17.4949 34.2609 18.57 31.9673 19.6452L30.6771 16.9932C30.6771 16.9932 10.3213 26.8127 11.1097 28.3896C11.1097 28.3896 13.5467 35.9872 17.7039 39.4993C23.868 44.8032 38.2747 39.1409 38.9198 25.4509C39.2782 17.4949 44.2238 10.2557 42.1452 8.60713Z" fill="#FFDD67"/>
<path d="M42.1452 8.60717C41.7868 8.32046 41.3567 8.17711 40.9267 8.10544C40.9983 8.17711 41.1417 8.17711 41.2134 8.24879C43.3636 9.89733 41.1417 13.6961 39.9232 17.1365C38.9198 19.8602 38.0597 22.6556 38.203 25.3792C38.7764 37.2774 26.8066 42.9397 19.6391 40.7895C26.6633 43.7282 39.7082 38.1375 39.1348 25.7376C38.9914 23.0139 39.7799 20.3619 40.855 17.4949C42.0018 14.0545 44.2237 10.2557 42.1452 8.60717Z" fill="#EBA352"/>
<path d="M32.6123 19.3584C28.1685 19.8601 21.646 26.2393 26.2332 33.1918C22.8645 26.1676 28.3835 21.437 31.8956 19.7885C32.254 19.5018 32.6123 19.3584 32.6123 19.3584Z" fill="#EBA352"/>
</svg>
