<svg width="400" height="561" viewBox="0 0 400 561" fill="none" xmlns="http://www.w3.org/2000/svg">
<path opacity="0.5" d="M288.8 195.805C243.6 169.572 206.216 194.122 199.602 250.662C198.455 260.493 205.942 273.419 215.015 278.688L362.531 364.286C371.604 369.554 379.092 365.318 377.998 354.184C371.385 289.931 334.001 221.985 288.8 195.805Z" fill="url(#paint0_linear_8_756)"/>
<path opacity="0.5" d="M339.193 122.319C339.193 161.371 316.456 179.837 288.418 163.543C260.434 147.303 237.697 102.495 237.697 63.4433C237.697 24.3919 260.434 5.92527 288.473 22.2193C316.511 38.4591 339.193 83.322 339.193 122.319Z" fill="url(#paint1_linear_8_756)"/>
<path opacity="0.07" d="M310.663 179.511C265.463 153.278 228.078 177.828 221.465 234.368C220.317 244.199 227.805 257.125 236.878 262.394L384.393 347.992C393.466 353.26 400.954 349.024 399.861 337.889C393.247 273.637 355.863 205.69 310.663 179.511Z" fill="url(#paint2_linear_8_756)"/>
<path opacity="0.07" d="M361.055 106.025C361.055 145.077 338.318 163.543 310.28 147.249C282.296 131.009 259.56 86.2008 259.56 47.1493C259.56 8.09792 282.296 -10.3687 310.335 5.92538C338.373 22.1651 361.055 67.0281 361.055 106.025Z" fill="url(#paint3_linear_8_756)"/>
<path opacity="0.2" d="M101.769 215.739L2.28882e-05 157.352V210.036L101.823 268.423L101.769 215.739Z" fill="url(#paint4_linear_8_756)"/>
<path fill-rule="evenodd" clip-rule="evenodd" d="M20.6598 186.898C20.6598 191.243 18.091 193.253 14.8663 191.46C11.6963 189.614 9.07283 184.617 9.07283 180.272C9.07283 175.927 11.6416 173.917 14.8663 175.709C18.091 177.556 20.6598 182.553 20.6598 186.898Z" fill="#F2994A"/>
<path opacity="0.15" d="M25.9068 185.269L59.1921 204.333V211.719L25.9068 192.655V185.269Z" fill="white"/>
<path opacity="0.15" d="M26.0708 200.15L91.275 237.572V244.959L26.0708 207.537V200.15Z" fill="white"/>
<path opacity="0.05" d="M262.456 268.857L364.717 327.516V546.345L262.456 487.74V268.857Z" fill="url(#paint5_linear_8_756)"/>
<path opacity="0.3" d="M347.665 342.18L245.349 283.522V502.351L347.61 561.009L347.665 342.18ZM278.689 316.653L312.849 336.206V344.896L278.689 325.615V316.653Z" fill="url(#paint6_linear_8_756)"/>
<path opacity="0.15" d="M255.242 422.184L337.389 469.274V476.661L255.242 429.571V422.184Z" fill="white"/>
<path opacity="0.15" d="M261.035 439.89L331.705 480.408V487.795L261.035 447.277V439.89Z" fill="white"/>
<path fill-rule="evenodd" clip-rule="evenodd" d="M319.353 403.772C319.353 386.446 309.132 366.513 296.562 359.289C283.991 352.065 273.77 360.267 273.77 377.593C273.77 394.919 283.991 414.852 296.562 422.075C309.132 429.299 319.353 421.098 319.353 403.772Z" fill="#F2994A"/>
<path opacity="0.05" d="M135.109 92.7183L237.369 151.377V370.206L135.109 311.547V92.7183Z" fill="url(#paint7_linear_8_756)"/>
<path opacity="0.3" d="M220.317 166.204L118.002 107.546V326.375L220.262 385.034L220.317 166.204ZM151.342 140.677L185.501 160.23V168.92L151.342 149.639V140.677Z" fill="url(#paint8_linear_8_756)"/>
<path opacity="0.15" d="M127.894 245.991L210.042 293.081V300.468L127.894 253.378V245.991Z" fill="white"/>
<path opacity="0.15" d="M133.633 263.752L204.248 304.27V311.656L133.578 271.138L133.633 263.752Z" fill="white"/>
<path fill-rule="evenodd" clip-rule="evenodd" d="M192.005 227.633C192.005 210.307 181.785 190.374 169.214 183.15C156.643 175.927 146.423 184.128 146.423 201.454C146.423 218.78 156.643 238.713 169.214 245.937C181.785 253.16 192.005 244.959 192.005 227.633Z" fill="#F2C94C"/>
<path opacity="0.3" d="M192.005 349.676L29.3502 256.365L29.4048 340.605L177.686 425.66L192.06 446.788L192.005 349.676Z" fill="url(#paint9_linear_8_756)"/>
<path fill-rule="evenodd" clip-rule="evenodd" d="M12.0243 289.225V266.359L73.4026 301.554V324.42L12.0243 289.225Z" fill="#F2994A"/>
<path opacity="0.15" d="M150.194 346.199L114.558 325.778V333.164L150.194 353.586V346.199Z" fill="white"/>
<path opacity="0.15" d="M150.194 361.027L81.4916 321.65V329.037L150.194 368.414V361.027Z" fill="white"/>
<path opacity="0.15" d="M150.194 375.8L67.0079 328.059V335.445L150.248 383.187L150.194 375.8Z" fill="white"/>
<path fill-rule="evenodd" clip-rule="evenodd" d="M158.993 358.963C158.993 365.915 163.147 373.899 168.23 376.832C173.313 379.765 177.467 376.507 177.467 369.554C177.467 362.602 173.313 354.618 168.23 351.685C163.093 348.752 158.939 352.011 158.993 358.963Z" fill="#F2994A"/>
<path opacity="0.2" d="M64.4937 96.9006C67.773 98.7472 70.3965 103.31 70.3965 107.057V123.623L81.437 129.923C84.7163 131.77 87.3398 136.332 87.3398 140.08C87.3398 143.827 84.7163 145.348 81.437 143.502L70.3965 137.201V153.767C70.3965 157.514 67.773 159.035 64.4937 157.189C61.2144 155.342 58.5909 150.78 58.5909 147.032V130.466L47.5505 124.166C44.2711 122.319 41.6476 117.757 41.6476 114.009C41.6476 110.262 44.2711 108.741 47.5505 110.588L58.5909 116.888V100.322C58.5909 96.5747 61.2144 95.0539 64.4937 96.9006Z" fill="url(#paint10_linear_8_756)"/>
<defs>
<linearGradient id="paint0_linear_8_756" x1="27020.2" y1="-3041.01" x2="9227.83" y2="10019.8" gradientUnits="userSpaceOnUse">
<stop stop-color="white"/>
<stop offset="1" stop-color="white" stop-opacity="0"/>
</linearGradient>
<linearGradient id="paint1_linear_8_756" x1="9357.27" y1="912.365" x2="-2164.57" y2="9370.19" gradientUnits="userSpaceOnUse">
<stop stop-color="white"/>
<stop offset="1" stop-color="white" stop-opacity="0"/>
</linearGradient>
<linearGradient id="paint2_linear_8_756" x1="27042.1" y1="-3057.31" x2="9249.69" y2="10003.5" gradientUnits="userSpaceOnUse">
<stop stop-color="white"/>
<stop offset="1" stop-color="white" stop-opacity="0"/>
</linearGradient>
<linearGradient id="paint3_linear_8_756" x1="9379.14" y1="896.071" x2="-2142.7" y2="9353.9" gradientUnits="userSpaceOnUse">
<stop stop-color="white"/>
<stop offset="1" stop-color="white" stop-opacity="0"/>
</linearGradient>
<linearGradient id="paint4_linear_8_756" x1="6043.32" y1="3735.62" x2="3866.23" y2="7531.3" gradientUnits="userSpaceOnUse">
<stop stop-color="white"/>
<stop offset="1" stop-color="white" stop-opacity="0"/>
</linearGradient>
<linearGradient id="paint5_linear_8_756" x1="6171.7" y1="3921.98" x2="-3659.47" y2="21061.6" gradientUnits="userSpaceOnUse">
<stop stop-color="white"/>
<stop offset="1" stop-color="white" stop-opacity="0"/>
</linearGradient>
<linearGradient id="paint6_linear_8_756" x1="6157.95" y1="3934.43" x2="-3673.36" y2="21075.2" gradientUnits="userSpaceOnUse">
<stop stop-color="white"/>
<stop offset="1" stop-color="white" stop-opacity="0"/>
</linearGradient>
<linearGradient id="paint7_linear_8_756" x1="6044.45" y1="3745.29" x2="-3786.71" y2="20884.9" gradientUnits="userSpaceOnUse">
<stop stop-color="white"/>
<stop offset="1" stop-color="white" stop-opacity="0"/>
</linearGradient>
<linearGradient id="paint8_linear_8_756" x1="6030.6" y1="3758.45" x2="-3800.71" y2="20899.2" gradientUnits="userSpaceOnUse">
<stop stop-color="white"/>
<stop offset="1" stop-color="white" stop-opacity="0"/>
</linearGradient>
<linearGradient id="paint9_linear_8_756" x1="11468.3" y1="6212.42" x2="4556.29" y2="11658.6" gradientUnits="userSpaceOnUse">
<stop stop-color="white"/>
<stop offset="1" stop-color="white" stop-opacity="0"/>
</linearGradient>
<linearGradient id="paint10_linear_8_756" x1="2941.59" y1="2293.36" x2="903.046" y2="3912.28" gradientUnits="userSpaceOnUse">
<stop stop-color="white"/>
<stop offset="1" stop-color="white" stop-opacity="0"/>
</linearGradient>
</defs>
</svg>
