<svg width="16" height="16" viewBox="0 0 16 16" fill="none" xmlns="http://www.w3.org/2000/svg">
<path d="M11 6V6.33334H11.3333C11.7754 6.33334 12.1993 6.50893 12.5118 6.82149C12.8244 7.13405 13 7.55798 13 8V12.6667C13 13.1087 12.8244 13.5326 12.5118 13.8452C12.1993 14.1577 11.7754 14.3333 11.3333 14.3333H4.66666C4.22463 14.3333 3.80071 14.1577 3.48815 13.8452C3.17558 13.5326 2.99999 13.1087 2.99999 12.6667V8C2.99999 7.55798 3.17558 7.13405 3.48815 6.82149C3.80071 6.50893 4.22463 6.33334 4.66666 6.33334H4.99999V6V4.66667C4.99999 3.87102 5.31606 3.10796 5.87867 2.54535C6.44128 1.98274 7.20434 1.66667 7.99999 1.66667C8.79564 1.66667 9.5587 1.98274 10.1213 2.54535C10.6839 3.10796 11 3.87102 11 4.66667V6ZM9.99999 6.33334H10.3333V6V4.66667C10.3333 4.04783 10.0875 3.45434 9.64991 3.01675C9.21232 2.57917 8.61883 2.33334 7.99999 2.33334C7.38115 2.33334 6.78766 2.57917 6.35007 3.01675C5.91249 3.45434 5.66666 4.04783 5.66666 4.66667V6V6.33334H5.99999H9.99999ZM12.0404 13.3738C12.228 13.1862 12.3333 12.9319 12.3333 12.6667V8C12.3333 7.73479 12.228 7.48043 12.0404 7.2929C11.8529 7.10536 11.5985 7 11.3333 7H4.66666C4.40144 7 4.14709 7.10536 3.95955 7.2929C3.77201 7.48043 3.66666 7.73479 3.66666 8V12.6667C3.66666 12.9319 3.77201 13.1862 3.95955 13.3738C4.14709 13.5613 4.40144 13.6667 4.66666 13.6667H11.3333C11.5985 13.6667 11.8529 13.5613 12.0404 13.3738Z" fill="black" stroke="#264653" stroke-width="0.666667"/>
</svg>
