<svg width="16" height="16" viewBox="0 0 16 16" fill="none" xmlns="http://www.w3.org/2000/svg">
<path d="M5.65063 8.78276L6.18627 8.56816L5.73278 8.21136C5.13365 7.73999 4.69634 7.09359 4.48169 6.3621C4.26703 5.63062 4.28571 4.85041 4.53513 4.13004C4.78454 3.40966 5.25229 2.78493 5.87329 2.34277C6.49429 1.90061 7.23767 1.663 8 1.663C8.76233 1.663 9.50571 1.90061 10.1267 2.34277C10.7477 2.78493 11.2155 3.40966 11.4649 4.13004C11.7143 4.85041 11.733 5.63062 11.5183 6.3621C11.3037 7.09359 10.8663 7.73999 10.2672 8.21136L10.4733 8.47333L10.3504 8.78316C11.4187 9.20716 12.3516 9.91393 13.0489 10.8277C13.7461 11.7412 14.1815 12.8272 14.3086 13.9693C14.3178 14.0566 14.2923 14.1441 14.2374 14.2126C14.1858 14.2771 14.1121 14.3201 14.0309 14.3333L13.98 14.3333L13.978 14.3333C13.8956 14.3338 13.8159 14.3038 13.7543 14.249C13.6928 14.1942 13.6537 14.1186 13.6446 14.0367L13.6446 14.0361C13.489 12.6515 12.8288 11.3727 11.79 10.444C10.7512 9.51538 9.4067 9.00202 8.01333 9.00202C6.61997 9.00202 5.27545 9.51538 4.23665 10.444C3.19786 11.3727 2.53762 12.6515 2.38208 14.0361L2.382 14.0369C2.37221 14.1258 2.3275 14.2072 2.2577 14.2632C2.18789 14.3192 2.09871 14.3451 2.00978 14.3353C1.92084 14.3255 1.83944 14.2808 1.78347 14.211C1.75575 14.1765 1.73512 14.1368 1.72274 14.0942C1.71037 14.0517 1.70649 14.0072 1.71132 13.9632C1.83775 12.8241 2.27089 11.7407 2.9646 10.8284C3.65835 9.91601 4.58668 9.20902 5.65063 8.78276ZM6.33329 7.82774C6.82663 8.15739 7.40665 8.33333 8 8.33333C8.79565 8.33333 9.55871 8.01726 10.1213 7.45465C10.6839 6.89205 11 6.12898 11 5.33333C11 4.73999 10.8241 4.15997 10.4944 3.66662C10.1648 3.17328 9.69623 2.78876 9.14805 2.5617C8.59987 2.33463 7.99667 2.27522 7.41473 2.39098C6.83278 2.50673 6.29823 2.79246 5.87868 3.21201C5.45912 3.63157 5.1734 4.16612 5.05764 4.74806C4.94189 5.33001 5.0013 5.93321 5.22836 6.48138C5.45542 7.02956 5.83994 7.4981 6.33329 7.82774Z" fill="black" stroke="#264653" stroke-width="0.666667"/>
</svg>
