<svg width="21" height="36" viewBox="0 0 21 36" fill="none" xmlns="http://www.w3.org/2000/svg">
<path fill-rule="evenodd" clip-rule="evenodd" d="M8.21739 0C3.67905 0 0 3.67905 0 8.21739V15.5217C0 18.7482 1.85947 21.5403 4.56522 22.885V27.3912C4.56522 31.9296 8.24428 35.6086 12.7826 35.6086C17.321 35.6086 21 31.9296 21 27.3912V20.0869C21 16.8604 19.1405 14.0683 16.4348 12.7236V8.21739C16.4348 3.67905 12.7557 0 8.21739 0ZM16.4348 12.7236C15.3346 12.1769 14.0945 11.8695 12.7826 11.8695C8.24428 11.8695 4.56522 15.5485 4.56522 20.0869V22.885C5.6654 23.4317 6.9055 23.7391 8.21739 23.7391C12.7557 23.7391 16.4348 20.0601 16.4348 15.5217V12.7236Z" fill="#2A9D8F"/>
</svg>
